<?xml version="1.0" encoding="UTF-8" standalone="no"?>
<svg
   xmlns:dc="http://purl.org/dc/elements/1.1/"
   xmlns:cc="http://creativecommons.org/ns#"
   xmlns:rdf="http://www.w3.org/1999/02/22-rdf-syntax-ns#"
   xmlns:svg="http://www.w3.org/2000/svg"
   xmlns="http://www.w3.org/2000/svg"
   xmlns:sodipodi="http://sodipodi.sourceforge.net/DTD/sodipodi-0.dtd"
   xmlns:inkscape="http://www.inkscape.org/namespaces/inkscape"
   width="145"
   height="125"
   viewBox="0 0 38.364583 33.072917"
   version="1.1"
   id="svg8"
   inkscape:version="1.0.2-2 (e86c870879, 2021-01-15)"
   sodipodi:docname="tantum-logo.svg">
  <defs
     id="defs2" />
  <sodipodi:namedview
     id="base"
     pagecolor="#ffffff"
     bordercolor="#666666"
     borderopacity="1.0"
     inkscape:pageopacity="0.0"
     inkscape:pageshadow="2"
     inkscape:zoom="2.5463172"
     inkscape:cx="111"
     inkscape:cy="131.5"
     inkscape:document-units="px"
     inkscape:current-layer="g1429"
     showgrid="false"
     units="px"
     inkscape:window-width="1920"
     inkscape:window-height="1017"
     inkscape:window-x="-8"
     inkscape:window-y="-8"
     inkscape:window-maximized="1"
     inkscape:document-rotation="0" />
  <metadata
     id="metadata5">
    <rdf:RDF>
      <cc:Work
         rdf:about="">
        <dc:format>image/svg+xml</dc:format>
        <dc:type
           rdf:resource="http://purl.org/dc/dcmitype/StillImage" />
        <dc:title></dc:title>
      </cc:Work>
    </rdf:RDF>
  </metadata>
  <g
     inkscape:label="Layer 1"
     inkscape:groupmode="layer"
     id="layer1"
     transform="translate(0,-227.41458)">
    <g
       id="g3798"
       transform="translate(-74.952669,129.24896)">
      <g
         id="g1429"
         transform="translate(-3.618301e-8,0.10390848)">
        <g
           id="g1450">
          <rect
             style="fill:#176574;fill-opacity:1;stroke-width:0.421434"
             id="rect1431"
             width="38.364582"
             height="33.072918"
             x="74.952667"
             y="98.061707" />
          <g
             id="g1444"
             transform="matrix(0.8,0,0,0.8,18.827,22.940411)">
            <path
               inkscape:connector-curvature="0"
               style="fill:#ffffff;fill-opacity:1;fill-rule:evenodd;stroke:none;stroke-width:0.178744"
               d="m 84.749188,123.58332 c 0.234641,-0.42361 0.117317,-1.02876 0.175982,-1.51289 -0.234647,-0.90774 -0.410629,-1.81547 -0.938582,-2.7232 -0.05867,-0.18155 -0.234647,-0.30258 -0.293305,-0.48412 -0.703942,-0.96826 -1.642523,-1.87599 -2.698429,-2.66269 -0.293306,-0.18155 -0.586611,-0.42361 -0.938582,-0.54464 -0.410629,-0.18155 -0.938582,-0.30258 -1.055905,0.24206 -0.05867,0.12103 -0.05867,0.36309 -0.05867,0.54464 0,0.18155 0,0.42361 0,0.54464 0,0 0.05867,0.0605 0.117317,0.12103 0.05867,0.24206 0.05867,0.48412 0.175989,0.7867 0.234647,0.42362 0.527953,0.96826 0.879917,1.45238 0.586618,0.84721 1.349218,1.63392 2.170476,2.3601 0.821258,0.72619 1.642517,1.39187 2.463782,1.87599 m 2.75708,3.14681 c 0.469295,0.30258 0.997247,0.36309 1.5252,0.4236 0.586613,0 1.173233,0 1.759843,-0.18154 0.35197,-0.12103 0.82127,-0.24206 1.17323,-0.42361 0,0 0,-0.0605 0,-0.0605 0,0 0,0 0,0 -1.29055,-0.36309 -2.639767,-0.42361 -3.93032,0 -0.175982,0.0605 -0.410629,0.0605 -0.527953,0.24207 m -1.525193,-2.36012 c 0.05867,0 0.117324,0.0605 0.175982,0.0605 0.645277,0.30258 1.173229,0.66568 1.818506,0.90774 1.290552,0.48412 2.698428,0.7867 3.988978,0.90773 0.29331,0.0605 0.4693,0.0605 0.7626,0.0605 0.23465,0 0.7626,-0.0605 0.93858,0.0605 0,0 0,0 0,0 0,0.0605 0,0.0605 0,0.0605 0,0 0,0.0605 -0.0587,0.0605 -0.64528,-0.0605 -1.29055,0.12103 -2.05315,0.36309 -0.46929,0.18155 -0.93859,0.42361 -1.34922,0.78671 -1.114564,0.96824 -1.642517,2.42062 -0.23464,3.20732 0.64527,0.36309 1.64252,0.36309 2.22913,-0.0605 0.11733,-0.0605 0.23465,-0.18155 0.29331,-0.24207 0.46929,-0.48412 0.70394,-1.2103 0.64528,-1.75494 -0.0587,-0.18155 -0.17599,-0.42362 -0.29331,-0.60516 -0.11732,-0.12103 -0.29331,-0.18155 -0.29331,-0.3631 0.17599,0.0605 0.29331,0.24207 0.41063,0.42362 0.52796,0.84722 0.52796,1.9365 -0.41063,2.54165 -0.87992,0.60516 -2.52244,0.60516 -3.343701,0 -0.234647,-0.18155 -0.469294,-0.36309 -0.527953,-0.54464 -0.35197,-0.78671 0.117324,-1.69444 0.938584,-2.42063 0.29331,-0.30257 0.64528,-0.4236 0.93858,-0.66566 -0.58661,0.12102 -1.231887,0.18154 -1.877164,0.12102 -0.586617,-0.0605 -1.231894,-0.0605 -1.818505,-0.54464 0.175982,-0.30257 0.527953,-0.48412 0.7626,-0.54464 0.645276,-0.18154 1.40787,-0.12102 1.994489,-0.24205 -0.938584,-0.18156 -1.877165,-0.60516 -2.815747,-1.02877 -0.351971,-0.12103 -0.703942,-0.18155 -0.938589,-0.48412 -0.351964,0 -0.64527,-0.3631 -0.99724,-0.42362 -0.351971,1.1498 -0.879924,2.29959 -1.994488,3.44939 -0.175988,0.18155 -0.410629,0.36309 -0.645276,0.54464 -1.173229,0.7867 -2.463782,1.21032 -3.695676,1.33134 -1.055906,0.0605 -2.170469,-0.12102 -3.167717,-0.72618 -0.175982,-0.12103 -0.351964,-0.18155 -0.410629,-0.3631 0.117324,-0.12102 0.175989,0.0605 0.234647,0.0605 0.234648,0.12103 0.469295,0.30258 0.7626,0.3631 0.938582,0.42361 1.935829,0.54464 2.93307,0.42361 0.234647,0 0.410629,-0.12104 0.645276,-0.12104 0.586611,-0.18155 1.231888,-0.36309 1.75984,-0.66567 0.234647,-0.0605 0.469295,-0.18154 0.645277,-0.30258 0.117323,-0.0605 0.293305,-0.24206 0.410629,-0.36309 0.527953,-0.3631 1.055905,-0.90774 1.407876,-1.39186 0.234647,-0.36309 0.410629,-0.72619 0.527953,-1.02877 0.234647,-0.4236 0.410629,-0.90772 0.410629,-1.33134 -1.231888,-0.72618 -2.581099,-1.81546 -3.812993,-2.96526 -0.469287,-0.48413 -0.821258,-0.96825 -1.173229,-1.45237 -0.879917,-1.21032 -1.349211,-2.54166 -1.055905,-3.69145 0.117323,-0.18155 0.175988,-0.30258 0.35197,-0.42361 0.234647,-0.12103 0.527953,0 0.879924,0.0605 1.173229,0.42361 2.581098,1.5734 3.51968,2.7232 0.821265,0.96825 1.231895,1.99701 1.466535,3.02578 0.175989,0.84721 0.175989,1.75495 0.05867,2.54165 0.351971,0.24206 0.703942,0.42361 1.055906,0.66567 m 19.768896,-2.66268 c 0.87993,-0.72619 1.64253,-1.51289 2.22914,-2.36011 0.35197,-0.48413 0.64527,-1.02877 0.82125,-1.45238 0.11733,-0.30257 0.17599,-0.54464 0.23465,-0.7867 0,-0.0605 0.0587,-0.12103 0.0587,-0.12103 0.0587,-0.12103 0.0587,-0.36309 0.0587,-0.54464 0,-0.18155 0,-0.42361 -0.0587,-0.54464 -0.17599,-0.54464 -0.64528,-0.42361 -1.11457,-0.24206 -0.35197,0.12103 -0.64527,0.36309 -0.93859,0.54463 -0.99724,0.78671 -1.93582,1.69444 -2.63976,2.66269 -0.0587,0.18155 -0.23464,0.30258 -0.2933,0.48413 -0.52796,0.90773 -0.7626,1.81547 -0.93859,2.7232 0.0587,0.48412 -0.0587,1.08928 0.17599,1.51289 0.7626,-0.48413 1.64252,-1.1498 2.40512,-1.87598 m -5.69016,4.78073 c -1.290549,-0.42361 -2.639769,-0.3631 -3.930309,0 -0.0587,0 -0.0587,0 -0.0587,0 0,0 0.0587,0.0605 0.0587,0.0605 0.35196,0.18155 0.82125,0.30257 1.17322,0.4236 0.58662,0.18155 1.17323,0.18155 1.75984,0.18155 0.52796,-0.0605 1.055909,-0.12103 1.525199,-0.4236 -0.11732,-0.18155 -0.35197,-0.18155 -0.52795,-0.24207 m 3.05039,-2.78372 c -0.0587,-0.78669 -0.11732,-1.69443 0.11732,-2.54165 0.17599,-1.02876 0.64528,-2.05753 1.40788,-3.02578 0.93858,-1.14979 2.40511,-2.29959 3.57834,-2.7232 0.29331,-0.0605 0.58662,-0.18155 0.87993,-0.0605 0.17598,0.12103 0.23464,0.24206 0.35197,0.42361 0.2933,1.1498 -0.23465,2.48114 -1.05591,3.69145 -0.35197,0.48412 -0.7626,0.96825 -1.17323,1.45237 -1.23189,1.1498 -2.5811,2.23908 -3.87165,2.96527 0.0587,0.42361 0.23464,0.90773 0.46929,1.33134 0.11732,0.30258 0.29331,0.66567 0.52795,1.02877 0.35197,0.48412 0.87993,1.02876 1.34921,1.39186 0.17599,0.12103 0.35197,0.30257 0.4693,0.36308 0.17598,0.12104 0.41063,0.24207 0.58661,0.30259 0.58662,0.30257 1.23189,0.48412 1.75984,0.66567 0.23465,0 0.46929,0.12103 0.70394,0.12103 0.93858,0.12103 1.99449,0 2.93307,-0.42361 0.23465,-0.0605 0.46929,-0.24206 0.7626,-0.36309 0.0587,0 0.11732,-0.18155 0.23465,-0.0605 -0.0587,0.18154 -0.29332,0.24206 -0.41064,0.36309 -0.99724,0.60516 -2.11181,0.7867 -3.16772,0.72619 -1.29054,-0.12103 -2.58109,-0.54464 -3.75432,-1.33135 -0.23465,-0.18155 -0.41063,-0.36309 -0.58661,-0.54464 -1.17323,-1.1498 -1.70119,-2.29959 -1.9945,-3.44939 -0.35196,0.0605 -0.70393,0.42362 -0.99724,0.42362 -0.2933,0.30257 -0.64528,0.36309 -0.93858,0.48412 -0.93858,0.42361 -1.877159,0.84721 -2.815749,1.02877 0.58661,0.12103 1.349206,0.0605 1.935829,0.24205 0.2933,0.0605 0.64527,0.24207 0.7626,0.54464 -0.52796,0.48413 -1.17323,0.48413 -1.818509,0.54464 -0.58661,0.0605 -1.23189,0 -1.81851,-0.12102 0.29332,0.24206 0.64528,0.36309 0.93859,0.66566 0.7626,0.72619 1.290546,1.63392 0.93859,2.42063 -0.0587,0.18155 -0.29332,0.36309 -0.52796,0.54464 -0.82126,0.60516 -2.46378,0.60516 -3.3437,0 -0.93858,-0.60515 -0.99724,-1.69443 -0.41063,-2.54165 0.11732,-0.18155 0.23465,-0.3631 0.41063,-0.42362 0,0.18155 -0.17598,0.24207 -0.29331,0.3631 -0.11732,0.18154 -0.23465,0.42361 -0.2933,0.60516 -0.11733,0.54464 0.11732,1.27082 0.64527,1.75494 0.0587,0.0605 0.17598,0.18156 0.23464,0.24207 0.58662,0.42361 1.64253,0.42361 2.2878,0.0605 1.40787,-0.7867 0.87992,-2.23908 -0.23464,-3.20732 -0.41063,-0.3631 -0.87993,-0.60516 -1.40788,-0.78671 -0.70394,-0.24206 -1.34921,-0.42361 -2.05315,-0.36309 0,0 0,-0.0605 0,-0.0605 0,0 0,0 0,-0.0605 0,0 0,0 0,0 0.11733,-0.12103 0.70394,-0.0605 0.93859,-0.0605 0.23464,0 0.46928,0 0.70393,-0.0605 1.29055,-0.12104 2.69843,-0.42362 3.988979,-0.90774 0.64527,-0.24206 1.23189,-0.60516 1.87717,-0.90774 0.0587,0 0.0587,-0.0605 0.17598,-0.0605 0.35197,-0.24206 0.70393,-0.4236 0.99724,-0.66567 m 0.41063,-17.85209 c -0.23464,0.42361 -0.11732,0.96825 -0.17598,1.51289 0.23464,0.84721 0.41062,1.81546 0.93858,2.7232 0.0587,0.12103 0.23464,0.30257 0.29331,0.48412 0.70393,0.90773 1.64252,1.87598 2.69842,2.60217 0.29331,0.24207 0.58662,0.42361 0.87993,0.60516 0.46928,0.18155 0.93858,0.30257 1.11456,-0.30258 0.0587,-0.12103 0.0587,-0.30258 0.0587,-0.54464 0,-0.12103 0,-0.3631 0,-0.48413 -0.0587,-0.0605 -0.0587,-0.0605 -0.11731,-0.12102 -0.0587,-0.24207 -0.0587,-0.48413 -0.17599,-0.78671 -0.23464,-0.48412 -0.52795,-0.96825 -0.87992,-1.45237 -0.58662,-0.90774 -1.34921,-1.63392 -2.17047,-2.42063 -0.82126,-0.66567 -1.64252,-1.39185 -2.46378,-1.81546 m -2.75709,-3.14681 c -0.46929,-0.30258 -0.997243,-0.3631 -1.525199,-0.42361 -0.58661,-0.0605 -1.17323,0 -1.75984,0.18154 -0.35197,0.0605 -0.82126,0.24207 -1.17323,0.42361 0,0 0,0 0,0 0,0.0605 0,0.0605 0,0.0605 1.29056,0.30258 2.63977,0.36309 3.930319,0 0.17598,-0.0605 0.41063,-0.12103 0.52795,-0.24206 m 1.5252,2.29959 c -0.0587,0 -0.11733,0 -0.17599,-0.0605 -0.64527,-0.24206 -1.23188,-0.60515 -1.8185,-0.84721 -1.290549,-0.54464 -2.698419,-0.84722 -3.988979,-0.96825 -0.2933,0 -0.46929,0 -0.7626,0 -0.23464,0 -0.7626,0 -0.93858,-0.12104 0,0 0,0 0,0 0,0 0,0 0,-0.0605 0,0 0,0 0,0 0.70394,0 1.34921,-0.18156 2.11181,-0.42362 0.4693,-0.12102 0.93859,-0.42361 1.34921,-0.7867 1.11457,-0.90773 1.64253,-2.360115 0.23465,-3.146815 -0.64527,-0.36309 -1.64252,-0.36309 -2.22913,0 -0.11733,0.12104 -0.23465,0.18155 -0.29331,0.30258 -0.46929,0.48412 -0.7626,1.149795 -0.64527,1.754955 0.0587,0.12103 0.17598,0.42361 0.2933,0.60516 0.11732,0.12103 0.29331,0.12103 0.29331,0.30257 -0.17599,-0.0605 -0.29331,-0.18154 -0.41063,-0.36309 -0.52796,-0.90773 -0.52796,-1.936495 0.41063,-2.602175 0.87992,-0.60516 2.52244,-0.54464 3.3437,0.0605 0.23465,0.12104 0.46929,0.3631 0.52795,0.54464 0.351966,0.786715 -0.11732,1.694445 -0.93858,2.420635 -0.2933,0.24206 -0.64527,0.42361 -0.93858,0.60515 0.58661,-0.0605 1.23189,-0.18154 1.87716,-0.12103 0.586619,0.0605 1.231889,0.12103 1.818509,0.60516 -0.17599,0.30257 -0.52795,0.42361 -0.7626,0.54464 -0.64528,0.12103 -1.407879,0.12103 -1.994489,0.18154 0.93858,0.24207 1.877169,0.60516 2.815749,1.02877 0.35197,0.18155 0.70393,0.24206 0.93858,0.48412 0.35197,0.0605 0.64528,0.42361 0.99725,0.48413 0.35196,-1.21031 0.87991,-2.36011 1.99448,-3.44939 0.17599,-0.18155 0.35198,-0.36309 0.64528,-0.54464 1.17323,-0.84722 2.46378,-1.27083 3.69567,-1.33134 1.05591,-0.0605 2.17047,0.12103 3.16772,0.72618 0.17598,0.0605 0.35196,0.18155 0.41063,0.3631 -0.11733,0.12103 -0.17599,-0.0605 -0.23465,-0.0605 -0.23465,-0.18154 -0.46929,-0.30258 -0.7626,-0.42361 -0.93858,-0.36309 -1.99449,-0.48412 -2.93307,-0.36309 -0.23465,0 -0.41063,0.0605 -0.64528,0.0605 -0.58661,0.18155 -1.23188,0.3631 -1.75984,0.66567 -0.23464,0.12104 -0.46929,0.18155 -0.64527,0.30258 -0.11733,0.12103 -0.29331,0.24207 -0.41063,0.3631 -0.52796,0.42361 -1.05591,0.90773 -1.40788,1.45237 -0.23465,0.36309 -0.41063,0.66567 -0.52795,1.02876 -0.23465,0.42361 -0.41063,0.90774 -0.46929,1.33135 1.29055,0.72618 2.63976,1.75495 3.87165,2.96526 0.41063,0.42361 0.82126,0.90773 1.17323,1.39186 0.87992,1.21031 1.34921,2.60217 1.05591,3.75196 -0.11733,0.12103 -0.17599,0.30258 -0.35197,0.42361 -0.23465,0.12103 -0.52796,0 -0.87992,-0.12103 -1.17323,-0.36309 -2.58111,-1.51289 -3.57835,-2.66268 -0.7626,-1.02877 -1.17323,-2.05753 -1.40787,-3.02578 -0.17599,-0.84722 -0.17599,-1.81547 -0.0587,-2.60217 -0.35196,-0.24206 -0.70393,-0.3631 -1.0559,-0.66567 m -19.768895,2.66268 c -0.879924,0.7867 -1.642524,1.51289 -2.229135,2.42062 -0.35197,0.48413 -0.645276,0.96825 -0.821258,1.45238 -0.117324,0.30258 -0.175989,0.54464 -0.234647,0.7867 0,0.0605 -0.05867,0.0605 -0.05867,0.12103 -0.05866,0.12103 -0.05866,0.3631 -0.05866,0.48413 0,0.24206 0,0.42361 0.05866,0.54464 0.175988,0.60515 0.645276,0.48412 1.11457,0.30257 0.351964,-0.18154 0.586611,-0.36309 0.879917,-0.60515 1.055906,-0.72619 1.994494,-1.69444 2.698429,-2.60217 0.05866,-0.18155 0.234647,-0.36309 0.293306,-0.48413 0.527952,-0.90773 0.762599,-1.87598 0.938581,-2.7232 -0.05867,-0.54464 0.05867,-1.08928 -0.175982,-1.51289 -0.762599,0.42361 -1.642523,1.1498 -2.405116,1.81547 m 5.690156,-4.72021 c 1.290555,0.36309 2.639765,0.30258 3.930315,0 0,0 0.0587,0 0.0587,-0.0605 -0.0587,0 -0.0587,0 -0.0587,0 -0.35196,-0.18154 -0.82126,-0.36309 -1.17322,-0.42361 -0.58662,-0.18154 -1.17323,-0.24206 -1.759854,-0.18154 -0.527953,0.0605 -1.055906,0.12103 -1.525193,0.42361 0.117323,0.12103 0.351964,0.18154 0.527952,0.24206 m -3.050392,2.7232 c 0.05867,0.7867 0.117323,1.75495 -0.117324,2.60217 -0.175989,0.96825 -0.645276,1.99701 -1.407876,3.02578 -0.938582,1.14979 -2.405117,2.29959 -3.578346,2.66268 -0.293306,0.12103 -0.586611,0.24206 -0.879923,0.12103 -0.175982,-0.12103 -0.234641,-0.30258 -0.351964,-0.42361 -0.293313,-1.14979 0.175982,-2.54165 1.055905,-3.75196 0.351964,-0.48413 0.762593,-0.96825 1.173229,-1.39186 1.231888,-1.21031 2.581099,-2.23908 3.871651,-2.96526 -0.05867,-0.42361 -0.234647,-0.90774 -0.469294,-1.33135 -0.117323,-0.36309 -0.293305,-0.66567 -0.527953,-1.02876 -0.351964,-0.54464 -0.879916,-1.02876 -1.349211,-1.45237 -0.175982,-0.12103 -0.35197,-0.24207 -0.469287,-0.3631 -0.175989,-0.12103 -0.410636,-0.18154 -0.586618,-0.30258 -0.586611,-0.30257 -1.231888,-0.48412 -1.759841,-0.66567 -0.234647,0 -0.469294,-0.0605 -0.703941,-0.0605 -0.938582,-0.12103 -1.994487,0 -2.933069,0.36309 -0.234647,0.12103 -0.469288,0.24207 -0.7626,0.42361 -0.05867,0 -0.117317,0.18155 -0.234641,0.0605 0.05867,-0.18155 0.293306,-0.30258 0.410629,-0.3631 0.997241,-0.60515 2.111811,-0.7867 3.167717,-0.72618 1.231888,0.0605 2.581099,0.48412 3.754328,1.33134 0.234647,0.18155 0.410629,0.36309 0.586618,0.54464 1.114564,1.08928 1.701181,2.23908 1.994487,3.44939 0.351964,-0.0605 0.703935,-0.42361 0.99724,-0.48413 0.293313,-0.24206 0.645277,-0.30257 0.938582,-0.48412 0.938589,-0.42361 1.877171,-0.7867 2.815759,-1.02877 -0.586624,-0.0605 -1.349217,-0.0605 -1.935835,-0.18154 -0.293306,-0.12103 -0.645277,-0.24207 -0.821259,-0.54464 0.586612,-0.48413 1.231888,-0.54464 1.877164,-0.60516 0.58662,-0.0605 1.23189,0.0605 1.81851,0.12103 -0.29331,-0.18154 -0.64528,-0.36309 -0.93858,-0.60515 -0.821265,-0.72619 -1.290559,-1.63392 -0.938588,-2.420635 0.05866,-0.18154 0.293305,-0.4236 0.527953,-0.54464 0.821265,-0.60515 2.463775,-0.66567 3.343705,-0.0605 0.93858,0.66568 0.99724,1.694445 0.41063,2.602175 -0.11733,0.18155 -0.23465,0.30258 -0.41063,0.36309 0,-0.18154 0.17598,-0.18154 0.2933,-0.30257 0.11733,-0.18155 0.23465,-0.48413 0.29331,-0.60516 0.11732,-0.60516 -0.11732,-1.270835 -0.64528,-1.754955 -0.0587,-0.12103 -0.17598,-0.18154 -0.23464,-0.30258 -0.58662,-0.36309 -1.64252,-0.36309 -2.2878,0 -1.407872,0.7867 -0.879919,2.239085 0.23465,3.146815 0.41063,0.36309 0.87992,0.66568 1.40788,0.78671 0.70393,0.24205 1.34921,0.42361 2.05314,0.42361 0,0 0,0 0,0 0,0.0605 0,0.0605 0,0.0605 0,0 0,0 0,0 -0.17598,0.12104 -0.70393,0.12104 -0.93858,0.12104 -0.23465,0 -0.46929,0 -0.70393,0 -1.29056,0.12103 -2.69843,0.42361 -3.988985,0.96825 -0.645276,0.24206 -1.231894,0.60515 -1.877163,0.84721 -0.05867,0.0605 -0.117324,0.0605 -0.175989,0.0605 -0.351964,0.30258 -0.703935,0.42361 -0.99724,0.66567 z"
               id="path3733" />
            <path
               inkscape:connector-curvature="0"
               style="fill:#ffffff;fill-opacity:0.941176;fill-rule:nonzero;stroke:none;stroke-width:0.178744"
               d="m 100.17714,107.54669 c -0.703939,1.87598 -0.703939,1.87598 -0.703939,1.87598 -0.17598,0 -0.17598,0 -0.17598,0 0,-0.12103 0.0587,-0.30257 0.0587,-0.48412 0,-0.18155 -0.0587,-0.24206 -0.17599,-0.30258 -0.11731,-0.0605 -0.2933,-0.0605 -0.52795,-0.0605 -3.93031,0 -3.93031,0 -3.93031,0 -0.0587,13.1924 -0.0587,13.1924 -0.0587,13.1924 0,0.54464 0.0587,0.90774 0.11731,1.14979 0.11733,0.18156 0.23465,0.30259 0.35198,0.3631 0.17598,0.0605 0.41062,0.0605 0.70393,0.0605 0,0.18154 0,0.18154 0,0.18154 -4.04763,0 -4.04763,0 -4.04763,0 0,-0.18154 0,-0.18154 0,-0.18154 0.52795,-0.0605 0.82125,-0.12103 0.93858,-0.30258 0.17598,-0.18155 0.23465,-0.54464 0.23465,-1.02876 0.0587,-13.49498 0.0587,-13.49498 0.0587,-13.49498 -3.754335,0 -3.754335,0 -3.754335,0 -0.410629,0 -0.645276,0.0605 -0.762593,0.0605 -0.117324,0.0605 -0.175989,0.18155 -0.175989,0.3631 0,0.0605 0.05867,0.24206 0.117324,0.42361 -0.175982,0 -0.175982,0 -0.175982,0 -0.703942,-1.87599 -0.703942,-1.87599 -0.703942,-1.87599 0.175989,0 0.175989,0 0.175989,0 0.117323,0.24207 0.234647,0.42361 0.351964,0.48413 0.117323,0 0.351971,0.0605 0.7626,0.0605 9.913784,0.0605 9.913784,0.0605 9.913784,0.0605 0.41062,0 0.70394,-0.0605 0.87992,-0.12103 0.175976,-0.0605 0.293296,-0.18155 0.351969,-0.42361 z"
               id="path3735" />
          </g>
        </g>
      </g>
    </g>
  </g>
</svg>
